<?xml version="1.0" encoding="utf-8"?>
<!-- Generator: Adobe Illustrator 24.3.0, SVG Export Plug-In . SVG Version: 6.00 Build 0)  -->
<svg version="1.1" id="Layer_1" xmlns="http://www.w3.org/2000/svg" xmlns:xlink="http://www.w3.org/1999/xlink" x="0px" y="0px"
	 viewBox="0 0 1286.58 283" style="enable-background:new 0 0 1286.58 283;" xml:space="preserve">
<style type="text/css">
	.st0{fill:none;}
	.st1{fill:#FFFFFF;}
</style>
<g>
</g>
<g>
	<rect x="857.58" y="415" class="st0" width="154" height="41"/>
</g>
<g>
	<path class="st1" d="M161.6,49.95v64.8h-3.2c-5.6-12.13-10.8-22.33-15.6-30.6c-4.8-8.27-10.7-15.3-17.7-21.1
		c-7-5.8-15.23-8.7-24.7-8.7l-15.2-0.6v64.2l9.2-0.4c7.73-0.8,13.57-4.47,17.5-11c3.93-6.53,5.9-14.13,5.9-22.8h3.8v72.8h-3.8
		c0-8.93-1.93-16.73-5.8-23.4c-3.87-6.67-9.73-10.4-17.6-11.2l-9.2-0.4v48.2l0.4,9.2c0.4,4.27,1.47,7.33,3.2,9.2
		c1.73,1.87,4.03,3,6.9,3.4c2.87,0.4,5.47,0.63,7.8,0.7c2.33,0.07,4.43,0.17,6.3,0.3v3.2H12.4v-3.2c1.73,0,3.73-0.1,6-0.3
		c2.27-0.2,4.83-0.47,7.7-0.8c2.87-0.33,5.07-1.33,6.6-3c1.53-1.67,2.5-4.63,2.9-8.9l0.4-9.2v-94.8l-0.4-9.2c-0.4-4.27-1.4-7.27-3-9
		c-1.6-1.73-3.83-2.8-6.7-3.2c-2.87-0.4-5.47-0.63-7.8-0.7c-2.33-0.07-4.43-0.17-6.3-0.3v-3.2H161.6z"/>
	<path class="st1" d="M230.4,195.75h-65.07v-3.2l4.83-0.2c3.89-0.4,6.23-1.33,7.04-2.8c0.8-1.47,1.21-4.67,1.21-9.6l0.2-9.2v-98.8
		l-0.2-8.2c-0.27-3.2-0.67-5.6-1.2-7.2c-0.53-1.6-2.93-2.6-7.2-3l-6.8-0.4v-3.2h54v120.8l0.2,9.2c0,4.8,0.4,7.97,1.2,9.5
		c0.8,1.53,3.13,2.5,7,2.9l4.8,0.2V195.75z"/>
	<path class="st1" d="M361.8,195.75h-52.6v-12.8c-3.07,4.8-6.83,8.47-11.3,11c-4.47,2.53-10.63,3.8-18.5,3.8
		c-9.2,0-17.33-2.73-24.4-8.2c-7.2-5.33-10.8-12.73-10.8-22.2v-44.4l-0.2-8.2c0-3.6-0.57-6.1-1.7-7.5c-1.13-1.4-3.57-2.3-7.3-2.7
		l-5.6-0.4v-3.2h53.4v65.4l0.2,8.2c0,5.47,0.96,9.57,2.88,12.3c1.92,2.73,4.8,4.1,8.63,4.1c4.23,0,7.31-1.2,9.22-3.6
		s3.47-4.87,4.67-7.4v-54l-0.4-9.2c0-4.4-0.72-7.4-2.17-9s-4.35-2.67-8.7-3.2l-6.13-0.4v-3.2h56v72.8l0.2,8.2
		c0,3.6,0.57,6.1,1.7,7.5c1.13,1.4,3.57,2.3,7.3,2.7l5.6,0.4V195.75z"/>
	<path class="st1" d="M374.8,108.55h-13.6v-5.4c4.53-1.2,9.27-3.43,14.22-6.7c4.95-3.27,9.67-7.07,14.16-11.4
		c4.49-4.33,8.24-8.57,11.26-12.7c3.02-4.13,5.33-7.87,6.94-11.2h5.63v39.8h26.02l-2.78,7.6H413.4v54.4l0.4,10.2
		c0,5.73,1.26,10.07,3.77,13c2.52,2.93,5.69,4.4,9.53,4.4c5.16,0,8.94-2.17,11.32-6.5c2.38-4.33,3.58-9.17,3.58-14.5h2.8
		c0,7.47-2.19,14.03-6.56,19.7c-4.38,5.67-13.79,8.5-28.24,8.5c-9.25,0-17.44-2.4-24.54-7.2c-7.11-4.8-10.66-11.53-10.66-20.2
		V108.55z"/>
	<path class="st1" d="M546.6,165.75c-3.74,10-9.76,17.83-18.04,23.5c-8.28,5.67-18.04,8.5-29.26,8.5c-15.77,0-28.73-4.37-38.88-13.1
		c-10.15-8.73-15.23-20.83-15.23-36.3c0-14.4,5.24-26.23,15.73-35.5c10.49-9.27,23.08-13.9,37.77-13.9c15.36,0,27.12,4.33,35.27,13
		c8.15,8.67,12.22,19.27,12.22,31.8h-61.4c0,4.8,0.36,9.7,1.09,14.7s2.12,9.83,4.17,14.5c2.05,4.67,4.96,8.43,8.74,11.3
		c3.77,2.87,8.51,4.3,14.2,4.3c8.18,0,14.65-2.3,19.42-6.9c4.76-4.6,8.41-10.37,10.96-17.3L546.6,165.75z M511.2,139.75
		c-0.13-1.47-0.23-3.2-0.3-5.2c-0.07-2-0.1-4.53-0.1-7.6c0-8.13-0.99-14.3-2.98-18.5c-1.99-4.2-5.43-6.3-10.32-6.3
		c-4.23,0-7.18,2.03-8.83,6.1c-1.66,4.07-2.81,10.3-3.47,18.7l-0.4,12.8H511.2z"/>
	<path class="st1" d="M714.8,87.55l-8.2-21.2c-1.87-3.87-3.44-6.73-4.7-8.6c-1.27-1.87-3.97-3.13-8.1-3.8l-6.2-0.8v-3.2h88v3.2h-2.8
		c-0.93,0-2.67,0.23-5.2,0.7c-2.54,0.47-4.67,1.03-6.4,1.7c-1.73,0.67-2.6,2.67-2.6,6c0,3.07,0.9,7.33,2.7,12.8
		c1.8,5.47,3.9,11.57,6.3,18.3c2.4,6.73,5.53,15.43,9.4,26.1c3.87,10.67,6.67,18.4,8.4,23.2c1.73-4.53,3.83-10,6.3-16.4
		c2.46-6.4,5.87-15.43,10.2-27.1c4.33-11.67,7.17-19.67,8.5-24c1.33-4.33,2-8.1,2-11.3c0-3.07-0.8-5.27-2.4-6.6
		c-1.6-1.33-3.53-2.17-5.8-2.5c-2.27-0.33-4.4-0.53-6.4-0.6c-2-0.07-3.87-0.17-5.6-0.3v-3.2h51.6v3.2l-8.81,1
		c-4.27,0.67-7.61,1.87-10.01,3.6c-2.4,1.73-4.54,4.8-6.41,9.2l-6,15.4l-42.83,114.2h-16.01l-36.43-103.2l-38.23,103.2h-16.01
		l-40.83-114.6l-6.21-15.6c-2-4.27-3.84-7.3-5.51-9.1c-1.67-1.8-4.17-2.9-7.5-3.3l-7.01-0.8v-3.2h86.4v3.2l-6.4,0.6
		c-3.07,0.4-5.23,1.03-6.5,1.9c-1.27,0.87-1.9,2.5-1.9,4.9c0,2.93,1.1,7.63,3.3,14.1c2.2,6.47,4.97,14.3,8.3,23.5
		c3.33,9.2,6.33,17.33,9,24.4c2.67,7.07,4.87,12.93,6.6,17.6L714.8,87.55z"/>
	<path class="st1" d="M941.51,185.95c3.16,0,5.36-1.98,6.61-5.93c1.25-3.95,1.88-8.68,1.88-14.17h2.8c0,11.77-2.1,19.53-6.3,23.27
		c-4.2,3.74-7.97,6.12-11.3,7.12c-3.33,1-7.6,1.5-12.8,1.5c-5.73,0-10.83-1.47-15.3-4.41c-4.47-2.94-7.17-6.88-8.1-11.82
		c-2.13,5.41-5.7,9.46-10.7,12.17s-11.5,4.06-19.5,4.06c-8.54,0-15.47-2.34-20.8-7.01c-5.33-4.67-8-11.16-8-19.44
		c0-6.68,1.67-12.06,5-16.13c3.33-4.08,6.73-6.58,10.2-7.52c3.46-0.93,8.8-1.74,16-2.41c7.2-0.67,12.5-1.44,15.9-2.31
		c3.4-0.87,5.83-1.8,7.3-2.81c1.47-1,2.2-2.7,2.2-5.11l-0.2-18.24c0-5.21-0.66-8.95-1.98-11.22c-1.32-2.27-4.09-3.41-8.31-3.41
		c-2.64,0-4.85,0.6-6.63,1.81c-1.78,1.21-2.67,2.75-2.67,4.62c0,1.48,1.42,3.32,4.26,5.53c2.84,2.21,4.26,5.53,4.26,9.95
		c0,4.15-1.84,7.84-5.52,11.05s-9.66,4.82-17.95,4.82c-4.55,0-8.53-1.24-11.94-3.72c-3.41-2.48-5.12-5.79-5.12-9.94
		c0-8.3,4.64-14.93,13.93-19.89c9.29-4.96,20.34-7.43,33.17-7.43c10.82,0,20.78,2.24,29.87,6.73c9.09,4.49,13.63,11.42,13.63,20.79
		v46.01c0,4.29,0.39,7.57,1.19,9.85C937.23,184.74,938.88,185.95,941.51,185.95z M896.59,179.94v-38.21l-0.59-0.2
		c-1.19,1.6-3.4,3.1-6.63,4.5s-5.47,2.77-6.72,4.1c-1.25,1.33-2.24,3.9-2.97,7.7c-0.72,3.8-1.09,7.7-1.09,11.7
		c0,6,0.46,10.81,1.38,14.41c0.92,3.6,3.03,5.4,6.33,5.4c2.5,0,4.71-1,6.63-3S896.06,182.21,896.59,179.94z"/>
	<path class="st1" d="M963.59,108.55h-13.6v-5.4c4.53-1.2,9.27-3.43,14.22-6.7c4.95-3.27,9.67-7.07,14.16-11.4
		c4.49-4.33,8.24-8.57,11.26-12.7c3.02-4.13,5.33-7.87,6.94-11.2h5.63v39.8h26.02l-2.78,7.6h-23.24v54.4l0.4,10.2
		c0,5.73,1.26,10.07,3.77,13c2.52,2.93,5.69,4.4,9.53,4.4c5.16,0,8.94-2.17,11.32-6.5c2.38-4.33,3.58-9.17,3.58-14.5h2.8
		c0,7.47-2.19,14.03-6.56,19.7c-4.38,5.67-13.79,8.5-28.24,8.5c-9.25,0-17.44-2.4-24.54-7.2c-7.11-4.8-10.66-11.53-10.66-20.2
		V108.55z"/>
	<path class="st1" d="M1093.79,102.15c-3.73,0-6.87,1.47-9.4,4.4c-2.54,2.93-4.5,6.53-5.9,10.8c-1.4,4.27-2.4,8.9-3,13.9
		s-0.9,9.83-0.9,14.5c0,12.13,2.04,22.7,6.12,31.7c4.08,9,11.27,13.5,21.57,13.5c7.36,0,13.78-2.3,19.26-6.9
		c5.48-4.6,9.63-10.43,12.44-17.5l3.01,1.6c-8.95,19.73-24.98,29.6-48.09,29.6c-15.23,0-28.19-4.5-38.88-13.5
		s-16.03-20.9-16.03-35.7c0-14.93,5.24-26.93,15.73-36c10.49-9.07,23.55-13.6,39.18-13.6c5.88,0,11.29,0.63,16.23,1.9
		c4.94,1.27,9.58,3,13.93,5.2c4.34,2.2,8.48,5.33,12.42,9.4c3.94,4.07,5.91,8.83,5.91,14.3c0,4.93-1.54,8.9-4.63,11.9
		s-7.64,4.5-13.67,4.5c-5.23,0-9.95-1.83-14.18-5.5c-4.22-3.67-6.33-7.83-6.33-12.5c0-3.6,0.73-7.07,2.2-10.4
		c1.46-3.33,2.2-6.13,2.2-8.4c0-2.13-0.8-3.87-2.4-5.2C1098.99,102.82,1096.73,102.15,1093.79,102.15z"/>
	<path class="st1" d="M1189.59,115.75c2.52-5.33,6.02-9.47,10.53-12.4c4.5-2.93,10.93-4.4,19.28-4.4c9.25,0,17.43,2.5,24.54,7.5
		s10.66,11.43,10.66,19.3v45l0.2,9.2c0,4.8,0.4,7.97,1.2,9.5c0.8,1.53,3.13,2.5,7,2.9l4.4,0.2v3.2h-61.92v-3.2l2.58-0.2
		c3.57,0,5.75-0.8,6.55-2.4c0.79-1.6,1.19-4.93,1.19-10l0.2-9.2v-40.8l-0.2-8.2c0-5.6-0.93-9.6-2.78-12c-1.85-2.4-4.63-3.6-8.33-3.6
		c-4.5,0-7.71,1.47-9.63,4.4c-1.92,2.93-3.47,5.93-4.66,9v51.2l0.2,9.2c0,5.2,0.36,8.57,1.09,10.1c0.72,1.53,2.94,2.3,6.65,2.3
		l2.58,0.2v3.2h-62.12v-3.2l4.6-0.2c3.87-0.4,6.2-1.33,7-2.8c0.8-1.47,1.2-4.67,1.2-9.6l0.2-9.2v-98.8l-0.2-8.2
		c0-3.6-0.57-6.1-1.7-7.5c-1.13-1.4-3.57-2.3-7.3-2.7l-7.6-0.4v-3.2h55.4v47.4c0,4.4-0.07,8.1-0.2,11.1
		S1189.86,113.88,1189.59,115.75z"/>
</g>
<g>
</g>
<g>
</g>
<g>
</g>
<g>
</g>
<g>
</g>
<g>
</g>
</svg>
